<mxfile host="app.diagrams.net" modified="2023-08-30T07:15:47.768Z" agent="Mozilla/5.0 (Windows NT 10.0; Win64; x64) AppleWebKit/537.36 (KHTML, like Gecko) Chrome/116.0.0.0 Safari/537.36 Edg/116.0.1938.62" etag="MCM9Nio_MLRN-LD9cE9T" version="21.6.9" type="github">
  <diagram name="第 1 页" id="tCXFLTWe_tcqSmrKPMjY">
    <mxGraphModel dx="1142" dy="613" grid="1" gridSize="10" guides="1" tooltips="1" connect="1" arrows="1" fold="1" page="1" pageScale="1" pageWidth="827" pageHeight="1169" math="0" shadow="0">
      <root>
        <mxCell id="0" />
        <mxCell id="1" parent="0" />
        <mxCell id="gV8c4JJkfnYhTOOU84S4-3" style="edgeStyle=orthogonalEdgeStyle;rounded=0;orthogonalLoop=1;jettySize=auto;html=1;exitX=0.5;exitY=1;exitDx=0;exitDy=0;" edge="1" parent="1" source="gV8c4JJkfnYhTOOU84S4-1">
          <mxGeometry relative="1" as="geometry">
            <mxPoint x="310" y="270" as="targetPoint" />
          </mxGeometry>
        </mxCell>
        <mxCell id="gV8c4JJkfnYhTOOU84S4-1" value="regist.html点击发送验证码" style="rounded=1;whiteSpace=wrap;html=1;" vertex="1" parent="1">
          <mxGeometry x="250" y="110" width="120" height="60" as="geometry" />
        </mxCell>
        <mxCell id="gV8c4JJkfnYhTOOU84S4-4" value="http://auth.gulimall.com/auth//sms/sendcode?phone=15972408053&lt;br&gt;经过Nginx、gateway路由到认证服务" style="text;html=1;strokeColor=none;fillColor=none;align=center;verticalAlign=middle;whiteSpace=wrap;rounded=0;" vertex="1" parent="1">
          <mxGeometry x="150" y="200" width="340" height="30" as="geometry" />
        </mxCell>
        <mxCell id="gV8c4JJkfnYhTOOU84S4-6" value="" style="rounded=1;whiteSpace=wrap;html=1;" vertex="1" parent="1">
          <mxGeometry x="550" y="190" width="300" height="60" as="geometry" />
        </mxCell>
        <mxCell id="gV8c4JJkfnYhTOOU84S4-7" value="验证码在Redis中的结构" style="text;html=1;strokeColor=none;fillColor=none;align=center;verticalAlign=middle;whiteSpace=wrap;rounded=0;" vertex="1" parent="1">
          <mxGeometry x="540" y="160" width="150" height="30" as="geometry" />
        </mxCell>
        <mxCell id="gV8c4JJkfnYhTOOU84S4-8" value="sms:code:15972408053" style="text;html=1;strokeColor=none;fillColor=none;align=center;verticalAlign=middle;whiteSpace=wrap;rounded=0;" vertex="1" parent="1">
          <mxGeometry x="600" y="220" width="60" height="30" as="geometry" />
        </mxCell>
        <mxCell id="gV8c4JJkfnYhTOOU84S4-9" value="key" style="text;html=1;strokeColor=none;fillColor=none;align=center;verticalAlign=middle;whiteSpace=wrap;rounded=0;" vertex="1" parent="1">
          <mxGeometry x="585" y="190" width="60" height="30" as="geometry" />
        </mxCell>
        <mxCell id="gV8c4JJkfnYhTOOU84S4-10" value="value" style="text;html=1;strokeColor=none;fillColor=none;align=center;verticalAlign=middle;whiteSpace=wrap;rounded=0;" vertex="1" parent="1">
          <mxGeometry x="730" y="190" width="60" height="30" as="geometry" />
        </mxCell>
        <mxCell id="gV8c4JJkfnYhTOOU84S4-11" value="382012_createTime" style="text;html=1;strokeColor=none;fillColor=none;align=center;verticalAlign=middle;whiteSpace=wrap;rounded=0;" vertex="1" parent="1">
          <mxGeometry x="717" y="220" width="110" height="30" as="geometry" />
        </mxCell>
        <mxCell id="gV8c4JJkfnYhTOOU84S4-14" style="edgeStyle=orthogonalEdgeStyle;rounded=0;orthogonalLoop=1;jettySize=auto;html=1;exitX=0.5;exitY=1;exitDx=0;exitDy=0;entryX=0.5;entryY=0;entryDx=0;entryDy=0;" edge="1" parent="1" source="gV8c4JJkfnYhTOOU84S4-12" target="gV8c4JJkfnYhTOOU84S4-13">
          <mxGeometry relative="1" as="geometry" />
        </mxCell>
        <mxCell id="gV8c4JJkfnYhTOOU84S4-24" style="edgeStyle=orthogonalEdgeStyle;rounded=0;orthogonalLoop=1;jettySize=auto;html=1;exitX=1;exitY=0.5;exitDx=0;exitDy=0;entryX=1;entryY=0.5;entryDx=0;entryDy=0;" edge="1" parent="1" source="gV8c4JJkfnYhTOOU84S4-12" target="gV8c4JJkfnYhTOOU84S4-20">
          <mxGeometry relative="1" as="geometry">
            <Array as="points">
              <mxPoint x="470" y="310" />
              <mxPoint x="470" y="610" />
            </Array>
          </mxGeometry>
        </mxCell>
        <mxCell id="gV8c4JJkfnYhTOOU84S4-12" value="去redis中检查有没有key为sms:code:15972408053" style="rhombus;whiteSpace=wrap;html=1;" vertex="1" parent="1">
          <mxGeometry x="220" y="270" width="180" height="80" as="geometry" />
        </mxCell>
        <mxCell id="gV8c4JJkfnYhTOOU84S4-17" style="edgeStyle=orthogonalEdgeStyle;rounded=0;orthogonalLoop=1;jettySize=auto;html=1;exitX=0;exitY=0.5;exitDx=0;exitDy=0;entryX=0;entryY=0.5;entryDx=0;entryDy=0;" edge="1" parent="1" source="gV8c4JJkfnYhTOOU84S4-13" target="gV8c4JJkfnYhTOOU84S4-1">
          <mxGeometry relative="1" as="geometry">
            <Array as="points">
              <mxPoint x="120" y="460" />
              <mxPoint x="120" y="140" />
            </Array>
          </mxGeometry>
        </mxCell>
        <mxCell id="gV8c4JJkfnYhTOOU84S4-21" style="edgeStyle=orthogonalEdgeStyle;rounded=0;orthogonalLoop=1;jettySize=auto;html=1;exitX=0.5;exitY=1;exitDx=0;exitDy=0;" edge="1" parent="1" source="gV8c4JJkfnYhTOOU84S4-13" target="gV8c4JJkfnYhTOOU84S4-20">
          <mxGeometry relative="1" as="geometry" />
        </mxCell>
        <mxCell id="gV8c4JJkfnYhTOOU84S4-13" value="截取value得到创建时间，判断距现在是否在一分钟内" style="rhombus;whiteSpace=wrap;html=1;" vertex="1" parent="1">
          <mxGeometry x="220" y="420" width="180" height="80" as="geometry" />
        </mxCell>
        <mxCell id="gV8c4JJkfnYhTOOU84S4-15" value="有" style="text;html=1;strokeColor=none;fillColor=none;align=center;verticalAlign=middle;whiteSpace=wrap;rounded=0;" vertex="1" parent="1">
          <mxGeometry x="300" y="360" width="60" height="30" as="geometry" />
        </mxCell>
        <mxCell id="gV8c4JJkfnYhTOOU84S4-18" value="是，直接返回，不发送验证码，接口防刷" style="text;html=1;strokeColor=none;fillColor=none;align=center;verticalAlign=middle;whiteSpace=wrap;rounded=0;" vertex="1" parent="1">
          <mxGeometry x="50" y="280" width="112" height="30" as="geometry" />
        </mxCell>
        <mxCell id="gV8c4JJkfnYhTOOU84S4-28" style="edgeStyle=orthogonalEdgeStyle;rounded=0;orthogonalLoop=1;jettySize=auto;html=1;exitX=0.5;exitY=1;exitDx=0;exitDy=0;" edge="1" parent="1" source="gV8c4JJkfnYhTOOU84S4-20" target="gV8c4JJkfnYhTOOU84S4-27">
          <mxGeometry relative="1" as="geometry" />
        </mxCell>
        <mxCell id="gV8c4JJkfnYhTOOU84S4-20" value="" style="rounded=1;whiteSpace=wrap;html=1;" vertex="1" parent="1">
          <mxGeometry x="250" y="580" width="120" height="60" as="geometry" />
        </mxCell>
        <mxCell id="gV8c4JJkfnYhTOOU84S4-22" value="否，超过一分钟允许重新发送验证码" style="text;html=1;strokeColor=none;fillColor=none;align=center;verticalAlign=middle;whiteSpace=wrap;rounded=0;" vertex="1" parent="1">
          <mxGeometry x="255" y="520" width="105" height="30" as="geometry" />
        </mxCell>
        <mxCell id="gV8c4JJkfnYhTOOU84S4-25" value="未发送过验证码或已发送的验证码过期，允许发送" style="text;html=1;strokeColor=none;fillColor=none;align=center;verticalAlign=middle;whiteSpace=wrap;rounded=0;" vertex="1" parent="1">
          <mxGeometry x="420" y="445" width="140" height="30" as="geometry" />
        </mxCell>
        <mxCell id="gV8c4JJkfnYhTOOU84S4-26" value="生成六位数的随机码，并放到Redis中" style="text;html=1;strokeColor=none;fillColor=none;align=center;verticalAlign=middle;whiteSpace=wrap;rounded=0;" vertex="1" parent="1">
          <mxGeometry x="260" y="595" width="100" height="30" as="geometry" />
        </mxCell>
        <mxCell id="gV8c4JJkfnYhTOOU84S4-27" value="发送短信" style="rounded=1;whiteSpace=wrap;html=1;" vertex="1" parent="1">
          <mxGeometry x="250" y="710" width="120" height="60" as="geometry" />
        </mxCell>
        <mxCell id="gV8c4JJkfnYhTOOU84S4-29" value="调用第三方服务将六位数的随机码发送给用户" style="text;html=1;strokeColor=none;fillColor=none;align=center;verticalAlign=middle;whiteSpace=wrap;rounded=0;" vertex="1" parent="1">
          <mxGeometry x="240" y="660" width="150" height="30" as="geometry" />
        </mxCell>
      </root>
    </mxGraphModel>
  </diagram>
</mxfile>
